<?xml version="1.0" encoding="UTF-8"?>
<!DOCTYPE svg PUBLIC "-//W3C//DTD SVG 1.1//EN" "http://www.w3.org/Graphics/SVG/1.1/DTD/svg11.dtd">
<svg xmlns="http://www.w3.org/2000/svg" version="1.1" width="1024px" height="1024px" style="shape-rendering:geometricPrecision; text-rendering:geometricPrecision; image-rendering:optimizeQuality; fill-rule:evenodd; clip-rule:evenodd" xmlns:xlink="http://www.w3.org/1999/xlink">
<g><path style="opacity:1" fill="#ddf7f8" d="M -0.5,-0.5 C 340.833,-0.5 682.167,-0.5 1023.5,-0.5C 1023.5,340.833 1023.5,682.167 1023.5,1023.5C 682.167,1023.5 340.833,1023.5 -0.5,1023.5C -0.5,682.167 -0.5,340.833 -0.5,-0.5 Z"/></g>
<g><path style="opacity:1" fill="#d1598e" d="M 538.5,208.5 C 536.873,210.63 535.04,212.63 533,214.5C 526.787,226.258 521.121,238.258 516,250.5C 511.492,269.368 509.325,288.368 509.5,307.5C 502.819,293.645 494.319,280.979 484,269.5C 483.333,264.833 483.333,260.167 484,255.5C 486,248.833 488,242.167 490,235.5C 497.083,223.665 504.417,211.998 512,200.5C 515.097,196.73 518.764,193.73 523,191.5C 529.532,195.878 534.699,201.545 538.5,208.5 Z"/></g>
<g><path style="opacity:1" fill="#fda7ca" d="M 538.5,208.5 C 550.833,224.845 559.166,243.178 563.5,263.5C 563.274,265.189 562.941,266.855 562.5,268.5C 543.279,290.532 530.779,316.198 525,345.5C 524.085,346.328 523.419,347.328 523,348.5C 520.379,341.349 518.379,334.015 517,326.5C 514.466,320.111 511.966,313.778 509.5,307.5C 509.325,288.368 511.492,269.368 516,250.5C 521.121,238.258 526.787,226.258 533,214.5C 535.04,212.63 536.873,210.63 538.5,208.5 Z"/></g>
<g><path style="opacity:1" fill="#d1598e" d="M 444.5,256.5 C 445.105,259.127 445.605,261.793 446,264.5C 460.511,294.365 468.678,325.865 470.5,359C 469.594,360.699 469.261,362.533 469.5,364.5C 468.761,364.631 468.094,364.464 467.5,364C 448.572,344.979 431.906,324.146 417.5,301.5C 408.419,281.654 406.086,260.987 410.5,239.5C 411.167,239.167 411.833,238.833 412.5,238.5C 420.404,241.451 428.07,244.951 435.5,249C 438.94,251.042 441.94,253.542 444.5,256.5 Z"/></g>
<g><path style="opacity:1" fill="#fda7ca" d="M 635.5,241.5 C 635.715,249.636 635.382,257.969 634.5,266.5C 625.837,289.664 611.504,308.497 591.5,323C 577.539,330.42 564.206,338.753 551.5,348C 550.207,348.49 548.873,348.657 547.5,348.5C 547.046,351.14 545.879,353.473 544,355.5C 542.887,356.305 541.721,356.972 540.5,357.5C 546.421,330.332 557.421,305.666 573.5,283.5C 574.325,282.614 575.325,282.281 576.5,282.5C 576.5,281.167 576.5,279.833 576.5,278.5C 579.957,278.04 581.623,276.04 581.5,272.5C 584.965,272.649 586.965,270.982 587.5,267.5C 590.833,266.833 592.833,264.833 593.5,261.5C 595.795,260.864 597.461,259.531 598.5,257.5C 604.96,253.766 611.293,249.766 617.5,245.5C 622.428,242.367 627.762,240.367 633.5,239.5C 634.522,239.855 635.189,240.522 635.5,241.5 Z"/></g>
<g><path style="opacity:1" fill="#fda7ca" d="M 444.5,256.5 C 456.402,265.342 466.735,275.675 475.5,287.5C 476.325,288.386 477.325,288.719 478.5,288.5C 485.586,300.735 492.086,313.402 498,326.5C 499.954,339.061 503.62,351.061 509,362.5C 513.087,367.58 516.754,372.913 520,378.5C 521.226,380.548 522.726,380.881 524.5,379.5C 522.257,385.595 518.924,391.095 514.5,396C 513.216,396.684 512.049,396.517 511,395.5C 510.506,397.134 510.34,398.801 510.5,400.5C 507.37,400.7 504.37,401.366 501.5,402.5C 491.162,389.5 480.495,376.834 469.5,364.5C 469.261,362.533 469.594,360.699 470.5,359C 468.678,325.865 460.511,294.365 446,264.5C 445.605,261.793 445.105,259.127 444.5,256.5 Z"/></g>
<g><path style="opacity:1" fill="#d1598e" d="M 703.5,325.5 C 699.418,325.344 695.418,325.844 691.5,327C 677.857,333.155 664.523,339.822 651.5,347C 635.024,358.81 620.524,372.644 608,388.5C 602.667,397.167 597.333,405.833 592,414.5C 586.217,428.131 582.384,442.298 580.5,457C 581.233,458.766 581.567,460.599 581.5,462.5C 569.519,463.533 557.519,463.699 545.5,463C 540.555,462.727 538.721,460.227 540,455.5C 557.994,415.504 582.994,380.504 615,350.5C 623.817,337.815 633.317,325.815 643.5,314.5C 647.276,312.057 649.943,308.724 651.5,304.5C 663.373,289.529 678.373,279.029 696.5,273C 704.305,289.834 706.639,307.334 703.5,325.5 Z"/></g>
<g><path style="opacity:1" fill="#d1588d" d="M 373.5,284.5 C 367.065,316.366 371.898,346.366 388,374.5C 409.377,409.275 439.211,433.775 477.5,448C 486.941,451.055 496.608,452.888 506.5,453.5C 510.215,459.526 508.549,462.692 501.5,463C 478.314,466.037 455.981,463.037 434.5,454C 398.405,436.571 371.571,409.738 354,373.5C 339.955,340.628 337.788,306.961 347.5,272.5C 356.971,274.904 365.638,278.904 373.5,284.5 Z"/></g>
<g><path style="opacity:1" fill="#d25b8f" d="M 635.5,241.5 C 640.098,263.726 636.931,284.726 626,304.5C 611.871,327.457 594.704,347.79 574.5,365.5C 558.342,383.651 545.008,403.651 534.5,425.5C 533.998,426.521 533.332,426.688 532.5,426C 527.294,416.842 521.628,416.342 515.5,424.5C 512.976,422.132 510.81,419.466 509,416.5C 506.591,411.763 504.091,407.096 501.5,402.5C 504.37,401.366 507.37,400.7 510.5,400.5C 510.34,398.801 510.506,397.134 511,395.5C 512.049,396.517 513.216,396.684 514.5,396C 518.924,391.095 522.257,385.595 524.5,379.5C 529.447,371.887 534.78,364.553 540.5,357.5C 541.721,356.972 542.887,356.305 544,355.5C 545.879,353.473 547.046,351.14 547.5,348.5C 548.873,348.657 550.207,348.49 551.5,348C 564.206,338.753 577.539,330.42 591.5,323C 611.504,308.497 625.837,289.664 634.5,266.5C 635.382,257.969 635.715,249.636 635.5,241.5 Z"/></g>
<g><path style="opacity:1" fill="#fda7ca" d="M 373.5,284.5 C 380.036,289.862 386.369,295.528 392.5,301.5C 403.018,315.891 413.518,330.224 424,344.5C 436.079,356.509 447.579,369.009 458.5,382C 449.167,378.749 439.5,376.249 429.5,374.5C 420.57,376.697 418.57,381.697 423.5,389.5C 431.003,392.057 438.503,394.724 446,397.5C 456.935,403.479 467.769,409.646 478.5,416C 483.448,422.122 489.114,427.288 495.5,431.5C 499.675,438.517 503.342,445.85 506.5,453.5C 496.608,452.888 486.941,451.055 477.5,448C 439.211,433.775 409.377,409.275 388,374.5C 371.898,346.366 367.065,316.366 373.5,284.5 Z"/></g>
<g><path style="opacity:1" fill="#e49ebf" d="M 651.5,304.5 C 649.943,308.724 647.276,312.057 643.5,314.5C 643.539,313.417 643.873,312.417 644.5,311.5C 646.929,309.071 649.263,306.737 651.5,304.5 Z"/></g>
<g><path style="opacity:1" fill="#fda7ca" d="M 703.5,325.5 C 695.952,378.673 669.285,419.006 623.5,446.5C 610.327,453.642 596.327,458.976 581.5,462.5C 581.567,460.599 581.233,458.766 580.5,457C 582.384,442.298 586.217,428.131 592,414.5C 597.333,405.833 602.667,397.167 608,388.5C 620.524,372.644 635.024,358.81 651.5,347C 664.523,339.822 677.857,333.155 691.5,327C 695.418,325.844 699.418,325.344 703.5,325.5 Z"/></g>
<g><path style="opacity:1" fill="#1c3059" d="M 427.5,554.5 C 427.649,553.448 427.483,552.448 427,551.5C 422.387,545.247 417.554,539.247 412.5,533.5C 390.179,505.019 362.179,484.352 328.5,471.5C 311.142,464.875 293.142,461.208 274.5,460.5C 268.438,455.267 268.105,449.767 273.5,444C 321.571,445.357 363.571,462.024 399.5,494C 414.096,507.091 426.93,521.591 438,537.5C 441.416,541.831 443.916,546.664 445.5,552C 444.542,557.29 441.376,560.124 436,560.5C 432.701,559.015 429.868,557.015 427.5,554.5 Z"/></g>
<g><path style="opacity:1" fill="#1d3059" d="M 769.5,460.5 C 739.643,462.267 711.309,469.6 684.5,482.5C 667.414,490.389 651.414,500.222 636.5,512C 635.695,513.113 635.028,514.279 634.5,515.5C 632.692,515.491 631.025,515.991 629.5,517C 608.464,536.371 587.131,555.371 565.5,574C 554.178,582.329 542.512,590.162 530.5,597.5C 529.167,600.5 529.167,603.5 530.5,606.5C 551.046,587.726 575.046,575.56 602.5,570C 618.825,568.362 634.825,569.862 650.5,574.5C 661.704,579.028 671.537,585.695 680,594.5C 683.019,602.802 680.186,607.469 671.5,608.5C 648.409,588.143 622.076,582.143 592.5,590.5C 580.806,593.347 570.139,598.347 560.5,605.5C 551.356,611.252 542.69,617.752 534.5,625C 521.167,638.333 507.833,651.667 494.5,665C 483.256,669.263 478.923,665.43 481.5,653.5C 487.227,648.776 492.227,643.442 496.5,637.5C 497.239,637.631 497.906,637.464 498.5,637C 503.023,631.48 507.856,626.313 513,621.5C 513.83,615.804 513.663,610.137 512.5,604.5C 489.809,613.678 468.143,624.678 447.5,637.5C 442.148,635.473 439.482,631.473 439.5,625.5C 441.668,622.5 444.334,620 447.5,618C 459.959,611.11 472.292,604.277 484.5,597.5C 493.802,593.853 503.135,590.186 512.5,586.5C 513.833,577.833 513.833,569.167 512.5,560.5C 501.33,554.492 496.83,545.158 499,532.5C 501.24,525.259 505.907,520.259 513,517.5C 513.333,499.167 513.667,480.833 514,462.5C 516.226,458.139 519.726,456.639 524.5,458C 526.667,458.833 528.167,460.333 529,462.5C 530.281,480.781 530.947,499.115 531,517.5C 547.438,529.978 548.604,543.645 534.5,558.5C 532.83,558.751 531.33,559.418 530,560.5C 529.333,566.5 529.333,572.5 530,578.5C 531.045,577.627 531.878,576.627 532.5,575.5C 541.627,570.43 550.294,564.597 558.5,558C 580.573,537.256 603.24,517.256 626.5,498C 667.234,466.398 713.4,447.898 765,442.5C 773.261,443.939 775.927,448.606 773,456.5C 772.34,458.324 771.173,459.657 769.5,460.5 Z"/></g>
<g><path style="opacity:1" fill="#72dafe" d="M 274.5,460.5 C 293.142,461.208 311.142,464.875 328.5,471.5C 332.787,474.086 336.954,477.086 341,480.5C 353.261,497.899 366.095,514.732 379.5,531C 390.259,535.819 401.259,536.652 412.5,533.5C 417.554,539.247 422.387,545.247 427,551.5C 427.483,552.448 427.649,553.448 427.5,554.5C 422.49,556 417.49,557.5 412.5,559C 392.498,561.55 373.165,559.216 354.5,552C 314.749,533.036 288.083,502.536 274.5,460.5 Z"/></g>
<g><path style="opacity:1" fill="#73dafe" d="M 769.5,460.5 C 765.465,475.064 759.299,488.731 751,501.5C 735.31,523.079 715.476,539.579 691.5,551C 682.825,553.673 674.158,556.34 665.5,559C 656.861,560.009 648.194,560.509 639.5,560.5C 635.215,559.705 630.881,559.372 626.5,559.5C 632.812,552.538 633.146,545.204 627.5,537.5C 631.319,536.019 635.319,535.186 639.5,535C 655.817,533.961 672.15,533.295 688.5,533C 693.022,532.951 697.356,532.118 701.5,530.5C 703.013,528.465 703.679,526.131 703.5,523.5C 703.954,520.318 702.954,517.818 700.5,516C 697.925,515.042 695.259,514.542 692.5,514.5C 684.521,515.323 676.521,515.657 668.5,515.5C 668.659,511.281 668.826,506.947 669,502.5C 669.973,500.608 670.64,498.608 671,496.5C 674.981,492.188 679.314,488.188 684,484.5C 684.464,483.906 684.631,483.239 684.5,482.5C 711.309,469.6 739.643,462.267 769.5,460.5 Z"/></g>
<g><path style="opacity:1" fill="#4fabd2" d="M 328.5,471.5 C 362.179,484.352 390.179,505.019 412.5,533.5C 401.259,536.652 390.259,535.819 379.5,531C 366.095,514.732 353.261,497.899 341,480.5C 336.954,477.086 332.787,474.086 328.5,471.5 Z"/></g>
<g><path style="opacity:1" fill="#74dafd" d="M 431.5,487.5 C 438.744,487.249 445.411,489.082 451.5,493C 456.036,497.209 460.369,501.376 464.5,505.5C 466.778,508.397 468.278,511.73 469,515.5C 469.499,520.823 469.666,526.156 469.5,531.5C 446.541,525.866 433.875,511.199 431.5,487.5 Z"/></g>
<g><path style="opacity:1" fill="#58b2d7" d="M 464.5,505.5 C 460.369,501.376 456.036,497.209 451.5,493C 445.411,489.082 438.744,487.249 431.5,487.5C 430.549,486.081 430.216,484.415 430.5,482.5C 436.444,482.314 442.11,483.481 447.5,486C 451.241,489.286 455.075,492.453 459,495.5C 461.619,498.406 463.453,501.739 464.5,505.5 Z"/></g>
<g><path style="opacity:1" fill="#4faad0" d="M 684.5,482.5 C 684.631,483.239 684.464,483.906 684,484.5C 679.314,488.188 674.981,492.188 671,496.5C 670.64,498.608 669.973,500.608 669,502.5C 668.826,506.947 668.659,511.281 668.5,515.5C 657.167,515.5 645.833,515.5 634.5,515.5C 635.028,514.279 635.695,513.113 636.5,512C 651.414,500.222 667.414,490.389 684.5,482.5 Z"/></g>
<g><path style="opacity:1" fill="#52add3" d="M 627.5,537.5 C 633.146,545.204 632.812,552.538 626.5,559.5C 619.362,558.734 612.362,557.234 605.5,555C 603.773,553.611 602.439,551.944 601.5,550C 603.154,547.013 605.487,544.679 608.5,543C 614.505,540.082 620.839,538.248 627.5,537.5 Z"/></g>
<g><path style="opacity:1" fill="#d8f3f5" d="M 627.5,537.5 C 620.839,538.248 614.505,540.082 608.5,543C 605.487,544.679 603.154,547.013 601.5,550C 602.439,551.944 603.773,553.611 605.5,555C 612.362,557.234 619.362,558.734 626.5,559.5C 630.881,559.372 635.215,559.705 639.5,560.5C 639.5,561.5 639.5,562.5 639.5,563.5C 642.487,563.998 645.487,564.498 648.5,565C 646.833,565.333 645.167,565.667 643.5,566C 645.764,566.236 647.931,566.736 650,567.5C 650.423,566.044 651.256,565.544 652.5,566C 652.167,566.333 651.833,566.667 651.5,567C 653.099,568.066 654.099,569.566 654.5,571.5C 653.418,571.749 652.085,571.915 650.5,572C 649.402,572.77 649.402,573.603 650.5,574.5C 634.825,569.862 618.825,568.362 602.5,570C 575.046,575.56 551.046,587.726 530.5,606.5C 529.167,603.5 529.167,600.5 530.5,597.5C 542.512,590.162 554.178,582.329 565.5,574C 587.131,555.371 608.464,536.371 629.5,517C 631.025,515.991 632.692,515.491 634.5,515.5C 645.833,515.5 657.167,515.5 668.5,515.5C 676.521,515.657 684.521,515.323 692.5,514.5C 695.259,514.542 697.925,515.042 700.5,516C 702.954,517.818 703.954,520.318 703.5,523.5C 703.679,526.131 703.013,528.465 701.5,530.5C 697.356,532.118 693.022,532.951 688.5,533C 672.15,533.295 655.817,533.961 639.5,535C 635.319,535.186 631.319,536.019 627.5,537.5 Z"/></g>
<g><path style="opacity:1" fill="#9ab1c1" d="M 534.5,558.5 C 533.685,559.837 532.518,560.837 531,561.5C 530.833,563.833 530.667,566.167 530.5,568.5C 530.529,571.269 531.195,573.603 532.5,575.5C 531.878,576.627 531.045,577.627 530,578.5C 529.333,572.5 529.333,566.5 530,560.5C 531.33,559.418 532.83,558.751 534.5,558.5 Z"/></g>
<g><path style="opacity:1" fill="#1c2f59" d="M 467.5,586.5 C 441.479,580.575 416.479,583.408 392.5,595C 381.384,601.283 372.384,609.783 365.5,620.5C 353.92,620.352 350.753,615.018 356,604.5C 374.5,582.163 398.333,569.663 427.5,567C 440.593,566.003 453.593,566.67 466.5,569C 473.181,571.528 475.014,576.028 472,582.5C 470.333,583.733 468.833,585.067 467.5,586.5 Z"/></g>
<g><path style="opacity:1" fill="#72dafe" d="M 467.5,586.5 C 473.962,588.966 479.628,592.633 484.5,597.5C 472.292,604.277 459.959,611.11 447.5,618C 444.334,620 441.668,622.5 439.5,625.5C 424.818,635.346 409.152,642.679 392.5,647.5C 381.449,645.089 371.449,640.589 362.5,634C 361.941,633.275 361.608,632.442 361.5,631.5C 363.62,628.143 364.953,624.476 365.5,620.5C 372.384,609.783 381.384,601.283 392.5,595C 416.479,583.408 441.479,580.575 467.5,586.5 Z"/></g>
<g><path style="opacity:1" fill="#72dafe" d="M 671.5,608.5 C 673.278,614.051 676.111,619.051 680,623.5C 681.639,626.742 682.639,630.076 683,633.5C 674.387,640.611 664.554,644.944 653.5,646.5C 625.171,640.686 605.337,624.353 594,597.5C 593.338,595.187 592.838,592.854 592.5,590.5C 622.076,582.143 648.409,588.143 671.5,608.5 Z"/></g>
<g><path style="opacity:1" fill="#51acd2" d="M 592.5,590.5 C 592.838,592.854 593.338,595.187 594,597.5C 605.337,624.353 625.171,640.686 653.5,646.5C 627.925,652.043 604.592,646.876 583.5,631C 575.214,622.826 567.548,614.326 560.5,605.5C 570.139,598.347 580.806,593.347 592.5,590.5 Z"/></g>
<g><path style="opacity:1" fill="#52add3" d="M 439.5,625.5 C 439.482,631.473 442.148,635.473 447.5,637.5C 430.533,648.026 412.199,651.359 392.5,647.5C 409.152,642.679 424.818,635.346 439.5,625.5 Z"/></g>
<g><path style="opacity:1" fill="#adc5d1" d="M 496.5,637.5 C 492.227,643.442 487.227,648.776 481.5,653.5C 484.731,648.761 488.564,644.428 493,640.5C 493.483,639.552 493.649,638.552 493.5,637.5C 494.5,637.5 495.5,637.5 496.5,637.5 Z"/></g>
<g><path style="opacity:1" fill="#879dad" d="M 362.5,715.5 C 355.776,715.244 349.109,715.577 342.5,716.5C 342.611,715.883 342.944,715.383 343.5,715C 350.014,714.18 356.347,714.347 362.5,715.5 Z"/></g>
<g><path style="opacity:1" fill="#1c2e52" d="M 362.5,715.5 C 369.813,717.24 375.98,720.907 381,726.5C 384.953,735.042 382.453,740.375 373.5,742.5C 370.972,742.237 368.639,741.404 366.5,740C 359.494,733.144 351.494,731.811 342.5,736C 337.972,740.401 337.306,745.401 340.5,751C 342.5,752 344.5,753 346.5,754C 356.687,755.396 366.354,758.396 375.5,763C 389.664,774.515 392.33,788.348 383.5,804.5C 381.167,806.167 379.167,808.167 377.5,810.5C 362.31,818.727 346.643,819.56 330.5,813C 323.65,809.99 319.65,804.823 318.5,797.5C 319.058,792.609 321.725,789.609 326.5,788.5C 328.95,788.298 331.283,788.631 333.5,789.5C 341.636,799.201 351.636,801.701 363.5,797C 371.405,790.815 371.405,784.815 363.5,779C 352.171,776.334 341.171,772.667 330.5,768C 317.368,756.668 315.201,743.502 324,728.5C 328.979,722.598 335.146,718.598 342.5,716.5C 349.109,715.577 355.776,715.244 362.5,715.5 Z"/></g>
<g><path style="opacity:1" fill="#1c2e52" d="M 605.5,810.5 C 604.167,808.5 602.5,806.833 600.5,805.5C 600.068,804.29 599.401,803.29 598.5,802.5C 597.604,797.085 598.937,792.418 602.5,788.5C 604.819,787.833 607.153,787.666 609.5,788C 613.675,790.689 617.675,793.523 621.5,796.5C 623.438,798.163 625.772,798.829 628.5,798.5C 633.777,799.069 638.777,798.235 643.5,796C 649.601,788.803 648.601,782.803 640.5,778C 631.751,775.979 623.084,773.646 614.5,771C 601.227,764.623 595.727,754.123 598,739.5C 601.491,726.322 609.991,718.489 623.5,716C 637.582,713.254 649.749,716.754 660,726.5C 663.783,737.379 659.95,742.546 648.5,742C 645.113,738.947 641.447,736.28 637.5,734C 629.819,731.999 623.319,733.833 618,739.5C 617.333,742.833 617.333,746.167 618,749.5C 619.214,751.049 620.714,752.215 622.5,753C 631.167,755.333 639.833,757.667 648.5,760C 664.667,768.148 670.167,780.981 665,798.5C 659.662,808.928 651.162,815.095 639.5,817C 627.377,818.742 616.043,816.575 605.5,810.5 Z"/></g>
<g><path style="opacity:1" fill="#1c2e52" d="M 696.5,738.5 C 697.801,735.899 699.134,733.232 700.5,730.5C 702.817,726.518 705.817,723.185 709.5,720.5C 711.819,720.008 713.819,719.008 715.5,717.5C 728.632,713.936 741.299,715.102 753.5,721C 759.586,724.422 762.086,729.589 761,736.5C 758.267,741.562 754.1,743.395 748.5,742C 744.89,740.056 741.557,737.723 738.5,735C 731.499,732.545 724.832,733.212 718.5,737C 716.522,740.933 716.022,745.1 717,749.5C 717.833,750.333 718.667,751.167 719.5,752C 728.747,754.917 738.08,757.584 747.5,760C 763.113,767.395 768.947,779.562 765,796.5C 761.526,805.308 755.359,811.474 746.5,815C 728.807,820.528 712.974,817.362 699,805.5C 693.867,793.643 697.7,788.143 710.5,789C 718.955,798.892 729.288,801.558 741.5,797C 748.38,791.877 749.047,786.211 743.5,780C 733.638,776.625 723.638,773.625 713.5,771C 700.082,764.334 694.415,753.5 696.5,738.5 Z"/></g>
<g><path style="opacity:1" fill="#1d2f52" d="M 405.5,717.5 C 409.287,716.814 412.454,717.814 415,720.5C 424.027,742.885 433.86,764.885 444.5,786.5C 450.245,776.095 454.079,765.095 456,753.5C 460.052,751.058 464.219,750.891 468.5,753C 469.46,754.419 470.293,755.919 471,757.5C 471.333,761.167 471.667,764.833 472,768.5C 474.529,774.421 476.863,780.421 479,786.5C 488.913,765.671 498.579,744.671 508,723.5C 511.561,718.046 516.228,717.046 522,720.5C 524.966,725.747 524.966,731.08 522,736.5C 513.594,754.312 504.927,771.978 496,789.5C 493.471,795.421 491.137,801.421 489,807.5C 485.957,815.629 480.624,817.629 473,813.5C 469.333,805.167 465.667,796.833 462,788.5C 458.599,797.365 454.433,805.865 449.5,814C 444.962,816.303 440.795,815.803 437,812.5C 424.426,786.454 412.426,760.121 401,733.5C 397.949,726.726 399.449,721.392 405.5,717.5 Z"/></g>
<g><path style="opacity:1" fill="#1d2f52" d="M 554.5,716.5 C 558.597,716.575 561.763,718.242 564,721.5C 564.667,751.5 564.667,781.5 564,811.5C 557.445,818.314 551.778,817.647 547,809.5C 546.333,781.5 546.333,753.5 547,725.5C 547.913,721.094 550.413,718.094 554.5,716.5 Z"/></g>
<g><path style="opacity:1" fill="#90a7b6" d="M 715.5,717.5 C 713.819,719.008 711.819,720.008 709.5,720.5C 710.911,718.461 712.911,717.461 715.5,717.5 Z"/></g>
<g><path style="opacity:1" fill="#92a9b8" d="M 700.5,730.5 C 699.134,733.232 697.801,735.899 696.5,738.5C 696.292,734.915 697.625,732.249 700.5,730.5 Z"/></g>
<g><path style="opacity:1" fill="#879daf" d="M 326.5,788.5 C 327.449,787.848 328.615,787.514 330,787.5C 331.681,787.608 332.848,788.275 333.5,789.5C 331.283,788.631 328.95,788.298 326.5,788.5 Z"/></g>
<g><path style="opacity:1" fill="#8ca2b2" d="M 602.5,788.5 C 598.937,792.418 597.604,797.085 598.5,802.5C 597.359,799.36 597.192,796.027 598,792.5C 598.748,790.249 600.248,788.916 602.5,788.5 Z"/></g>
<g><path style="opacity:1" fill="#8ba1af" d="M 621.5,796.5 C 624.067,796.721 626.401,797.388 628.5,798.5C 625.772,798.829 623.438,798.163 621.5,796.5 Z"/></g>
<g><path style="opacity:1" fill="#90a7b7" d="M 383.5,804.5 C 382.5,807.5 380.5,809.5 377.5,810.5C 379.167,808.167 381.167,806.167 383.5,804.5 Z"/></g>
<g><path style="opacity:1" fill="#91a8b6" d="M 600.5,805.5 C 602.5,806.833 604.167,808.5 605.5,810.5C 602.833,809.833 601.167,808.167 600.5,805.5 Z"/></g>
</svg>
