<?xml version="1.0" encoding="UTF-8"?>
<!DOCTYPE svg PUBLIC "-//W3C//DTD SVG 1.1//EN" "http://www.w3.org/Graphics/SVG/1.1/DTD/svg11.dtd">
<svg xmlns="http://www.w3.org/2000/svg" version="1.1" width="1500px" height="1500px" style="shape-rendering:geometricPrecision; text-rendering:geometricPrecision; image-rendering:optimizeQuality; fill-rule:evenodd; clip-rule:evenodd" xmlns:xlink="http://www.w3.org/1999/xlink">
<g><path style="opacity:0.984" fill="#020202" d="M 745.5,274.5 C 894.536,277.943 1016.37,336.61 1111,450.5C 1188.49,551.815 1221.16,665.815 1209,792.5C 1189.3,939.186 1118.13,1053.02 995.5,1134C 873.986,1207.45 744.986,1224.45 608.5,1185C 474.897,1141.06 378.73,1055.23 320,927.5C 263.461,789.472 268.794,653.805 336,520.5C 397.229,409.956 488.062,335.122 608.5,296C 653.332,282.527 698.999,275.36 745.5,274.5 Z"/></g>
<g><path style="opacity:1" fill="#fcfefd" d="M 932.5,834.5 C 929.213,835.161 925.88,835.661 922.5,836C 921.058,836.377 920.058,837.21 919.5,838.5C 915.33,838.333 911.33,839 907.5,840.5C 905.143,840.337 902.81,840.503 900.5,841C 899.944,841.383 899.611,841.883 899.5,842.5C 882.03,846.184 864.363,848.85 846.5,850.5C 833.355,799.732 800.688,770.899 748.5,764C 698.904,762.207 662.404,783.04 639,826.5C 636.534,832.732 634.367,839.066 632.5,845.5C 631.5,845.833 630.5,846.167 629.5,846.5C 611.032,843.57 592.698,840.237 574.5,836.5C 573.653,835.034 572.32,834.2 570.5,834C 567.854,833.503 565.187,833.336 562.5,833.5C 562.389,832.883 562.056,832.383 561.5,832C 558.854,831.503 556.187,831.336 553.5,831.5C 551.106,830.985 548.772,830.319 546.5,829.5C 546.389,828.883 546.056,828.383 545.5,828C 542.522,827.304 539.522,826.804 536.5,826.5C 536.167,826.5 535.833,826.5 535.5,826.5C 529.945,822.54 523.612,820.54 516.5,820.5C 510.091,819.129 503.758,817.463 497.5,815.5C 495.383,813.345 492.716,812.345 489.5,812.5C 486.421,811.696 483.421,810.696 480.5,809.5C 469.255,780.855 461.588,751.189 457.5,720.5C 457.5,719.167 457.5,717.833 457.5,716.5C 458.737,715.035 459.737,713.368 460.5,711.5C 461.492,709.544 462.492,707.544 463.5,705.5C 464.748,699.002 466.581,692.669 469,686.5C 471.196,682.502 473.196,678.502 475,674.5C 475.794,671.529 476.461,668.529 477,665.5C 477.667,664.833 478.333,664.167 479,663.5C 482.42,652.237 486.42,641.237 491,630.5C 496.021,620.03 501.188,609.696 506.5,599.5C 509.137,594.872 511.804,590.205 514.5,585.5C 523.884,566.157 535.884,548.823 550.5,533.5C 551.847,532.829 553.014,532.829 554,533.5C 555.269,532.095 555.769,530.429 555.5,528.5C 555.369,527.761 555.536,527.094 556,526.5C 558.753,525.002 561.086,523.002 563,520.5C 563.824,517.118 563.657,513.784 562.5,510.5C 560.157,507.323 558.157,503.99 556.5,500.5C 555.833,498.5 555.167,496.5 554.5,494.5C 553.5,494.5 552.5,494.5 551.5,494.5C 551.737,493.209 551.404,492.209 550.5,491.5C 550.5,490.833 550.5,490.167 550.5,489.5C 549.455,486.939 548.122,484.606 546.5,482.5C 546.5,481.833 546.5,481.167 546.5,480.5C 543.235,473.009 540.902,465.342 539.5,457.5C 536.495,442.135 535.162,426.469 535.5,410.5C 536.11,409.609 536.443,408.609 536.5,407.5C 565.745,368.917 600.411,336.251 640.5,309.5C 787.499,277.204 919.166,308.37 1035.5,403C 1127.71,484.244 1178.87,586.411 1189,709.5C 1186.46,711.705 1184.29,714.205 1182.5,717C 1180.75,717.471 1179.09,718.138 1177.5,719C 1127,755.189 1073,784.856 1015.5,808C 1002.42,812.371 989.418,817.038 976.5,822C 961.833,826.279 947.166,830.446 932.5,834.5 Z"/></g>
<g><path style="opacity:1" fill="#afafaf" d="M 640.5,309.5 C 600.411,336.251 565.745,368.917 536.5,407.5C 536.831,399.804 536.497,392.138 535.5,384.5C 525.25,402.664 515.75,421.331 507,440.5C 496.891,457.051 485.558,472.717 473,487.5C 461.669,497.831 450.669,508.497 440,519.5C 439.333,521.5 439.333,523.5 440,525.5C 444.861,536.251 449.028,547.251 452.5,558.5C 453.133,563.05 453.133,567.55 452.5,572C 454.425,577.483 455.758,582.983 456.5,588.5C 457.492,595.982 457.825,603.648 457.5,611.5C 457.774,616.263 457.441,620.93 456.5,625.5C 455.71,626.609 455.21,627.942 455,629.5C 453.935,640.476 453.435,651.476 453.5,662.5C 453.5,662.833 453.5,663.167 453.5,663.5C 449.028,691.27 445.361,719.27 442.5,747.5C 441.192,751.019 441.192,754.685 442.5,758.5C 445.475,754.795 447.141,750.462 447.5,745.5C 450.597,736.986 453.931,728.653 457.5,720.5C 461.588,751.189 469.255,780.855 480.5,809.5C 480.33,810.822 480.663,811.989 481.5,813C 420.477,788.58 359.643,763.414 299,737.5C 298.502,734.183 298.335,730.85 298.5,727.5C 299.833,727.5 301.167,727.5 302.5,727.5C 306.858,622.548 342.358,529.882 409,449.5C 455.899,397.589 511.399,357.756 575.5,330C 596.457,320.847 618.124,314.014 640.5,309.5 Z"/></g>
<g><path style="opacity:1" fill="#fff570" d="M 917.5,368.5 C 916.539,370.265 916.205,372.265 916.5,374.5C 915.683,372.169 915.016,369.669 914.5,367C 916.217,365.185 917.217,365.685 917.5,368.5 Z"/></g>
<g><path style="opacity:1" fill="#fff009" d="M 917.5,368.5 C 924.653,377.457 930.82,387.124 936,397.5C 941.989,404.14 946.989,411.473 951,419.5C 953,421.5 955,423.5 957,425.5C 963.15,436.322 970.816,445.989 980,454.5C 980.333,455.5 980.667,456.5 981,457.5C 989.23,466.066 997.73,474.232 1006.5,482C 1018.91,489.531 1030.91,497.698 1042.5,506.5C 1043.81,508.316 1045.31,509.983 1047,511.5C 1047.48,512.448 1047.65,513.448 1047.5,514.5C 1044.56,522.245 1042.56,530.245 1041.5,538.5C 1041.5,540.167 1041.5,541.833 1041.5,543.5C 1039.82,547.545 1039.16,551.878 1039.5,556.5C 1039.5,561.833 1039.5,567.167 1039.5,572.5C 1038.34,575.307 1038.34,577.974 1039.5,580.5C 1039.33,588.174 1039.5,595.841 1040,603.5C 1041.04,604.244 1041.54,605.244 1041.5,606.5C 1041.1,611.783 1041.76,616.783 1043.5,621.5C 1046.39,635.712 1049.22,650.046 1052,664.5C 1053.82,668.709 1055.32,673.042 1056.5,677.5C 1056.07,680.877 1056.73,683.877 1058.5,686.5C 1059.58,692.062 1060.75,697.729 1062,703.5C 1064.05,706.813 1065.05,710.479 1065,714.5C 1066.63,718.834 1068.13,723.167 1069.5,727.5C 1069.34,729.857 1069.5,732.19 1070,734.5C 1070.2,736.32 1071.03,737.653 1072.5,738.5C 1072.5,738.833 1072.5,739.167 1072.5,739.5C 1072.81,742.713 1072.48,745.713 1071.5,748.5C 1070.57,747.064 1069.4,745.731 1068,744.5C 1063.88,737.385 1060.22,730.052 1057,722.5C 1056,721.5 1055,720.5 1054,719.5C 1049.14,708.51 1043.31,698.176 1036.5,688.5C 1036.3,684.87 1034.63,682.203 1031.5,680.5C 1031.11,678.821 1030.61,677.154 1030,675.5C 1022.06,664.617 1014.9,653.284 1008.5,641.5C 1007.92,639.251 1006.59,637.585 1004.5,636.5C 1001.44,630.053 997.605,624.053 993,618.5C 984.205,607.187 975.205,596.187 966,585.5C 958.19,579.092 950.69,572.259 943.5,565C 933.404,559.276 924.404,552.109 916.5,543.5C 916.5,541.5 916.5,539.5 916.5,537.5C 917.5,537.5 918.5,537.5 919.5,537.5C 920.167,532.833 920.833,528.167 921.5,523.5C 923.952,518.548 925.286,513.215 925.5,507.5C 926.913,504.781 927.58,501.781 927.5,498.5C 930.349,482.097 931.182,465.43 930,448.5C 926.473,423.671 921.973,399.004 916.5,374.5C 916.205,372.265 916.539,370.265 917.5,368.5 Z"/></g>
<g><path style="opacity:1" fill="#d8cb08" d="M 536.5,407.5 C 536.443,408.609 536.11,409.609 535.5,410.5C 496.994,462.531 471.827,520.531 460,584.5C 459.112,593.648 458.279,602.648 457.5,611.5C 457.825,603.648 457.492,595.982 456.5,588.5C 455.988,578.257 454.655,568.257 452.5,558.5C 449.028,547.251 444.861,536.251 440,525.5C 439.333,523.5 439.333,521.5 440,519.5C 450.669,508.497 461.669,497.831 473,487.5C 485.558,472.717 496.891,457.051 507,440.5C 515.75,421.331 525.25,402.664 535.5,384.5C 536.497,392.138 536.831,399.804 536.5,407.5 Z"/></g>
<g><path style="opacity:1" fill="#feef05" d="M 535.5,410.5 C 535.162,426.469 536.495,442.135 539.5,457.5C 539.354,466.136 541.687,473.803 546.5,480.5C 546.5,481.167 546.5,481.833 546.5,482.5C 546.599,485.639 547.932,487.973 550.5,489.5C 550.5,490.167 550.5,490.833 550.5,491.5C 550.5,492.833 550.5,494.167 550.5,495.5C 551.5,495.5 552.5,495.5 553.5,495.5C 553.721,497.664 554.721,499.33 556.5,500.5C 558.157,503.99 560.157,507.323 562.5,510.5C 563.657,513.784 563.824,517.118 563,520.5C 561.086,523.002 558.753,525.002 556,526.5C 555.536,527.094 555.369,527.761 555.5,528.5C 553.5,529.833 551.833,531.5 550.5,533.5C 535.884,548.823 523.884,566.157 514.5,585.5C 513.504,585.414 512.671,585.748 512,586.5C 509.276,590.52 507.442,594.854 506.5,599.5C 501.188,609.696 496.021,620.03 491,630.5C 486.42,641.237 482.42,652.237 479,663.5C 478.333,664.167 477.667,664.833 477,665.5C 476.461,668.529 475.794,671.529 475,674.5C 473.196,678.502 471.196,682.502 469,686.5C 466.581,692.669 464.748,699.002 463.5,705.5C 461.025,706.687 460.025,708.687 460.5,711.5C 459.737,713.368 458.737,715.035 457.5,716.5C 455.056,699.065 453.723,681.398 453.5,663.5C 453.5,663.167 453.5,662.833 453.5,662.5C 455.296,650.379 456.296,638.045 456.5,625.5C 457.441,620.93 457.774,616.263 457.5,611.5C 458.279,602.648 459.112,593.648 460,584.5C 471.827,520.531 496.994,462.531 535.5,410.5 Z"/></g>
<g><path style="opacity:1" fill="#fefbc1" d="M 539.5,457.5 C 540.902,465.342 543.235,473.009 546.5,480.5C 541.687,473.803 539.354,466.136 539.5,457.5 Z"/></g>
<g><path style="opacity:1" fill="#fefaaa" d="M 546.5,482.5 C 548.122,484.606 549.455,486.939 550.5,489.5C 547.932,487.973 546.599,485.639 546.5,482.5 Z"/></g>
<g><path style="opacity:1" fill="#fef89c" d="M 550.5,491.5 C 551.404,492.209 551.737,493.209 551.5,494.5C 552.5,494.5 553.5,494.5 554.5,494.5C 555.167,496.5 555.833,498.5 556.5,500.5C 554.721,499.33 553.721,497.664 553.5,495.5C 552.5,495.5 551.5,495.5 550.5,495.5C 550.5,494.167 550.5,492.833 550.5,491.5 Z"/></g>
<g><path style="opacity:1" fill="#fef9a8" d="M 927.5,498.5 C 927.58,501.781 926.913,504.781 925.5,507.5C 925.42,504.219 926.087,501.219 927.5,498.5 Z"/></g>
<g><path style="opacity:1" fill="#fefbbc" d="M 925.5,507.5 C 925.286,513.215 923.952,518.548 921.5,523.5C 922.31,517.93 923.643,512.596 925.5,507.5 Z"/></g>
<g><path style="opacity:1" fill="#fef785" d="M 1047.5,514.5 C 1048.1,514.735 1048.43,515.235 1048.5,516C 1045.91,523.531 1043.58,531.031 1041.5,538.5C 1042.56,530.245 1044.56,522.245 1047.5,514.5 Z"/></g>
<g><path style="opacity:1" fill="#fffbca" d="M 555.5,528.5 C 555.769,530.429 555.269,532.095 554,533.5C 553.014,532.829 551.847,532.829 550.5,533.5C 551.833,531.5 553.5,529.833 555.5,528.5 Z"/></g>
<g><path style="opacity:1" fill="#fef9a3" d="M 921.5,523.5 C 920.833,528.167 920.167,532.833 919.5,537.5C 918.5,537.5 917.5,537.5 916.5,537.5C 916.5,539.5 916.5,541.5 916.5,543.5C 915.527,541.052 915.194,538.385 915.5,535.5C 916.5,535.5 917.5,535.5 918.5,535.5C 918.898,531.239 919.898,527.239 921.5,523.5 Z"/></g>
<g><path style="opacity:1" fill="#fef895" d="M 1041.5,543.5 C 1041.23,548.028 1040.56,552.361 1039.5,556.5C 1039.16,551.878 1039.82,547.545 1041.5,543.5 Z"/></g>
<g><path style="opacity:1" fill="#fef9ab" d="M 1039.5,572.5 C 1039.99,574.952 1039.99,577.618 1039.5,580.5C 1038.34,577.974 1038.34,575.307 1039.5,572.5 Z"/></g>
<g><path style="opacity:1" fill="#bab793" d="M 452.5,558.5 C 454.655,568.257 455.988,578.257 456.5,588.5C 455.758,582.983 454.425,577.483 452.5,572C 453.133,567.55 453.133,563.05 452.5,558.5 Z"/></g>
<g><path style="opacity:1" fill="#fefaba" d="M 514.5,585.5 C 511.804,590.205 509.137,594.872 506.5,599.5C 507.442,594.854 509.276,590.52 512,586.5C 512.671,585.748 513.504,585.414 514.5,585.5 Z"/></g>
<g><path style="opacity:1" fill="#fff56a" d="M 1041.5,606.5 C 1042.59,611.306 1043.26,616.306 1043.5,621.5C 1041.76,616.783 1041.1,611.783 1041.5,606.5 Z"/></g>
<g><path style="opacity:1" fill="#fcf8c3" d="M 456.5,625.5 C 456.296,638.045 455.296,650.379 453.5,662.5C 453.435,651.476 453.935,640.476 455,629.5C 455.21,627.942 455.71,626.609 456.5,625.5 Z"/></g>
<g><path style="opacity:1" fill="#fefab5" d="M 1004.5,636.5 C 1006.59,637.585 1007.92,639.251 1008.5,641.5C 1006.41,640.415 1005.08,638.749 1004.5,636.5 Z"/></g>
<g><path style="opacity:1" fill="#d7cb13" d="M 453.5,663.5 C 453.723,681.398 455.056,699.065 457.5,716.5C 457.5,717.833 457.5,719.167 457.5,720.5C 453.931,728.653 450.597,736.986 447.5,745.5C 446.264,747.611 444.764,749.611 443,751.5C 442.51,750.207 442.343,748.873 442.5,747.5C 445.361,719.27 449.028,691.27 453.5,663.5 Z"/></g>
<g><path style="opacity:1" fill="#fefab2" d="M 1031.5,680.5 C 1034.63,682.203 1036.3,684.87 1036.5,688.5C 1034.84,685.88 1033.17,683.213 1031.5,680.5 Z"/></g>
<g><path style="opacity:1" fill="#fefbc7" d="M 1056.5,677.5 C 1058.27,680.123 1058.93,683.123 1058.5,686.5C 1056.73,683.877 1056.07,680.877 1056.5,677.5 Z"/></g>
<g><path style="opacity:1" fill="#fefaab" d="M 463.5,705.5 C 462.492,707.544 461.492,709.544 460.5,711.5C 460.025,708.687 461.025,706.687 463.5,705.5 Z"/></g>
<g><path style="opacity:1" fill="#fefbbf" d="M 1069.5,727.5 C 1071.02,730.916 1072.02,734.583 1072.5,738.5C 1071.03,737.653 1070.2,736.32 1070,734.5C 1069.5,732.19 1069.34,729.857 1069.5,727.5 Z"/></g>
<g><path style="opacity:1" fill="#fef88f" d="M 1072.5,739.5 C 1073.4,742.997 1074.07,746.663 1074.5,750.5C 1072.82,750.715 1071.82,750.048 1071.5,748.5C 1072.48,745.713 1072.81,742.713 1072.5,739.5 Z"/></g>
<g><path style="opacity:1" fill="#bab898" d="M 447.5,745.5 C 447.141,750.462 445.475,754.795 442.5,758.5C 441.192,754.685 441.192,751.019 442.5,747.5C 442.343,748.873 442.51,750.207 443,751.5C 444.764,749.611 446.264,747.611 447.5,745.5 Z"/></g>
<g><path style="opacity:1" fill="#afafaf" d="M 704.5,1182.5 C 794.166,1158.31 871,1112.65 935,1045.5C 984.849,990.303 1017.35,926.137 1032.5,853C 1032.32,851.624 1031.65,850.791 1030.5,850.5C 1086.34,828.249 1139.01,800.249 1188.5,766.5C 1181,889.985 1131.34,992.818 1039.5,1075C 942.915,1157.03 831.248,1192.86 704.5,1182.5 Z"/></g>
<g><path style="opacity:1" fill="#959595" d="M 725.5,776.5 C 767.994,773.831 800.828,790.164 824,825.5C 843.194,863.995 840.194,900.661 815,935.5C 783.159,970.335 744.993,979.835 700.5,964C 658.326,942.5 638.826,908 642,860.5C 648.764,822.731 669.931,796.564 705.5,782C 712.191,779.836 718.858,778.003 725.5,776.5 Z"/></g>
<g><path style="opacity:1" fill="#fcfefd" d="M 498.5,862.5 C 500.617,864.655 503.284,865.655 506.5,865.5C 515.46,868.043 524.46,870.376 533.5,872.5C 535.102,874.074 537.102,874.741 539.5,874.5C 540.5,874.5 541.5,874.5 542.5,874.5C 545.968,877.114 549.968,878.114 554.5,877.5C 559.879,878.81 565.212,880.31 570.5,882C 580.812,883.878 591.146,885.712 601.5,887.5C 603.838,889.04 606.505,889.706 609.5,889.5C 610.5,889.5 611.5,889.5 612.5,889.5C 618.071,892.126 624.071,893.459 630.5,893.5C 642.124,944.622 673.791,974.789 725.5,984C 776.054,987.482 813.554,967.315 838,923.5C 841.697,914.569 844.864,905.569 847.5,896.5C 853.417,896.784 859.084,896.117 864.5,894.5C 865.167,894.5 865.833,894.5 866.5,894.5C 874.473,894.146 882.139,892.812 889.5,890.5C 893.36,890.192 897.026,889.525 900.5,888.5C 919.432,884.225 938.432,879.725 957.5,875C 977.626,868.94 997.626,862.44 1017.5,855.5C 1021.55,854.65 1025.55,853.484 1029.5,852C 1030.06,851.617 1030.39,851.117 1030.5,850.5C 1031.65,850.791 1032.32,851.624 1032.5,853C 1017.35,926.137 984.849,990.303 935,1045.5C 871,1112.65 794.166,1158.31 704.5,1182.5C 563.266,1166.18 453.099,1099.51 374,982.5C 334.467,920.903 311.467,853.569 305,780.5C 366.262,815.036 430.762,842.369 498.5,862.5 Z"/></g>
<g><path style="opacity:1" fill="#0c0c0c" d="M 730.5,800.5 C 772.217,798.751 800.05,817.418 814,856.5C 820.506,887.313 812.339,913.479 789.5,935C 756.806,958.331 724.14,958.331 691.5,935C 663.281,907.287 657.448,875.454 674,839.5C 686.998,817.996 705.831,804.996 730.5,800.5 Z"/></g>
<g><path style="opacity:1" fill="#595959" d="M 729.5,803.5 C 774.232,801.752 802.065,822.419 813,865.5C 815.218,911.265 794.051,939.099 749.5,949C 714.924,951.301 689.757,937.134 674,906.5C 660.155,868.34 669.655,837.507 702.5,814C 711.03,808.995 720.03,805.495 729.5,803.5 Z"/></g>
<g><path style="opacity:1" fill="#7f8080" d="M 489.5,812.5 C 492.716,812.345 495.383,813.345 497.5,815.5C 494.603,814.871 491.936,813.871 489.5,812.5 Z"/></g>
<g><path style="opacity:1" fill="#b5b6b5" d="M 516.5,820.5 C 523.612,820.54 529.945,822.54 535.5,826.5C 528.822,825.272 522.488,823.272 516.5,820.5 Z"/></g>
<g><path style="opacity:1" fill="#a7a8a8" d="M 536.5,826.5 C 539.522,826.804 542.522,827.304 545.5,828C 546.056,828.383 546.389,828.883 546.5,829.5C 542.838,829.277 539.505,828.277 536.5,826.5 Z"/></g>
<g><path style="opacity:1" fill="#939493" d="M 553.5,831.5 C 556.187,831.336 558.854,831.503 561.5,832C 562.056,832.383 562.389,832.883 562.5,833.5C 559.345,833.01 556.345,832.344 553.5,831.5 Z"/></g>
<g><path style="opacity:1" fill="#b4b5b4" d="M 562.5,833.5 C 565.187,833.336 567.854,833.503 570.5,834C 572.32,834.2 573.653,835.034 574.5,836.5C 570.431,835.311 566.431,834.311 562.5,833.5 Z"/></g>
<g><path style="opacity:1" fill="#646464" d="M 932.5,834.5 C 932.389,835.117 932.056,835.617 931.5,836C 927.371,836.327 923.371,837.16 919.5,838.5C 920.058,837.21 921.058,836.377 922.5,836C 925.88,835.661 929.213,835.161 932.5,834.5 Z"/></g>
<g><path style="opacity:1" fill="#929393" d="M 907.5,840.5 C 904.997,841.371 902.33,842.037 899.5,842.5C 899.611,841.883 899.944,841.383 900.5,841C 902.81,840.503 905.143,840.337 907.5,840.5 Z"/></g>
<g><path style="opacity:1" fill="#9b9d9c" d="M 1030.5,850.5 C 1030.39,851.117 1030.06,851.617 1029.5,852C 1025.55,853.484 1021.55,854.65 1017.5,855.5C 1021.52,853.266 1025.86,851.599 1030.5,850.5 Z"/></g>
<g><path style="opacity:1" fill="#909190" d="M 498.5,862.5 C 501.397,863.129 504.064,864.129 506.5,865.5C 503.284,865.655 500.617,864.655 498.5,862.5 Z"/></g>
<g><path style="opacity:1" fill="#595959" d="M 533.5,872.5 C 535.898,872.259 537.898,872.926 539.5,874.5C 537.102,874.741 535.102,874.074 533.5,872.5 Z"/></g>
<g><path style="opacity:1" fill="#505151" d="M 542.5,874.5 C 546.596,875.508 550.596,876.508 554.5,877.5C 549.968,878.114 545.968,877.114 542.5,874.5 Z"/></g>
<g><path style="opacity:1" fill="#626362" d="M 601.5,887.5 C 604.428,887.565 607.095,888.232 609.5,889.5C 606.505,889.706 603.838,889.04 601.5,887.5 Z"/></g>
<g><path style="opacity:1" fill="#999b9a" d="M 900.5,888.5 C 897.026,889.525 893.36,890.192 889.5,890.5C 892.845,888.783 896.511,888.116 900.5,888.5 Z"/></g>
<g><path style="opacity:1" fill="#a9abaa" d="M 612.5,889.5 C 618.804,889.989 624.804,891.322 630.5,893.5C 624.071,893.459 618.071,892.126 612.5,889.5 Z"/></g>
<g><path style="opacity:1" fill="#bec0bf" d="M 889.5,890.5 C 882.139,892.812 874.473,894.146 866.5,894.5C 873.983,892.711 881.649,891.378 889.5,890.5 Z"/></g>
<g><path style="opacity:1" fill="#a4a6a5" d="M 864.5,894.5 C 859.084,896.117 853.417,896.784 847.5,896.5C 852.944,895.116 858.611,894.45 864.5,894.5 Z"/></g>
</svg>
